<?xml version="1.0" standalone="yes"?>
<svg xmlns="http://www.w3.org/2000/svg" width="640" height="853">
<path style="fill:#fcfcfd; stroke:none;" d="M0 0L0 853L640 853L640 0L0 0z"/>
<path style="fill:#bdbcc9; stroke:none;" d="M446 454L438 463L437 463L436 457L433 457L432 463L428 459L426 459L422 466L421 466L420 462L412 464L406 474L402 470L400 461L399 461L396 470L397 470L399 463L400 463L401 472L404 470L406 476L420 464L421 468L425 463L428 466C431.896 465.4 434.002 465.41 436 469L437 469L439 464L440 464L437 478L424 480C414.261 490.06 390.333 480.086 387 496L385 494C373.635 499.261 358.366 505.197 345 503.651C336.147 502.628 328.592 497.23 320 496L320 495L324 495L324 494L320 493L322 489L326 477L325 477L320 487L322 477L319 478L317 466L310 475L311 481C307.509 481.752 306.956 486.293 310 488L310 489L307 490L304 497L300 488L299 496L293 499L295 496L289 482L288 482L280 495C280.14 499.282 278.738 503.719 275 506L277 503C270.947 486.631 264.975 510.057 264 508L263 508L261 518L260 518L257 508L253 512L251 524L254 523C258.438 532.33 265.074 523.215 269 518L287.892 527.363L302 539L303 536L313 537C313 533.507 318.112 533.163 321 532C327.984 529.187 336.797 525.473 340 518C344.95 520.248 349.121 518.097 354.285 517.653C362.803 516.919 374.094 519.609 381.961 516.056C387.991 513.332 391.244 507.287 398 505.289C408.89 502.069 406.319 514.255 413.043 516.263C416.371 517.257 419.086 513.103 421.158 511.219C427.912 505.078 435.233 501.084 441 494L448 500C455.516 493.626 467.656 491.187 468 479L472 478C474.575 480.822 478.509 477.815 476.713 474.309C474.088 469.183 466.912 467.376 464 461L459 459L456 461L456 459L453 462L452 462L446 454z"/>
<path style="fill:#84899c; stroke:none;" d="M433.333 460.667L433.667 461.333L433.333 460.667M439 462L440 463L439 462M399 463L400 464L399 463M425 463L422 468L421 468L420 464L411 470L415 467L416 467L417 471L413 472L416 477L409 480L408 476L411 472L410 472L406 474L405 474C405.582 477.786 405.027 483.409 400 481L399 481L398 481C394.178 484.121 388.711 483.811 384 483C382.716 487.548 379.851 490.803 375 491L359 494L361 488L349 493L347 496L347 490L354 490L354 489L345 490L347 493L347 494L345 497L344 497L345 494C341.8 495.267 338.628 496.211 338 492L335 487L338 487L337 479L336 479L332 481L327 487L325 481L324 481L322 489L320 493L324 494L324 495L320 495L320 496L348 504.197L375 500.262L387 496C392.306 479.66 416.034 492.43 424 480L437 478L440 464L439 464L437 469L436 469C434.611 464.818 431.918 465.11 428 466L427 463L425 463z"/>
<path style="fill:#626a7c; stroke:none;" d="M399.333 464.667L399.667 465.333L399.333 464.667M419 465L420 466L419 465z"/>
<path style="fill:#84899c; stroke:none;" d="M398 466L399 467L398 466z"/>
<path style="fill:#4f596b; stroke:none;" d="M399 466L395 479L399 480L403 475L404 478L405 478L404 471L403 471L401 475L399 466z"/>
<path style="fill:#bdbcc9; stroke:none;" d="M362 468L362 469L364 471L367 468L364 467L362 468M384 467L383 471L384 471C384.653 469.04 385 468.446 385 471L386 471L384 467z"/>
<path style="fill:#626a7c; stroke:none;" d="M398 467L399 468L398 467z"/>
<path style="fill:#84899c; stroke:none;" d="M400 467L401 468L400 467z"/>
<path style="fill:#626a7c; stroke:none;" d="M415 467L408 476L409 480L416 477L413 472L417 471L415 467z"/>
<path style="fill:#bdbcc9; stroke:none;" d="M345 473L346 473L348 469L352 471L351 468L345 473z"/>
<path style="fill:#84899c; stroke:none;" d="M363 468L362 471L367 469L364 471L363 468M397 468L398 469L397 468z"/>
<path style="fill:#626a7c; stroke:none;" d="M348 469L349 470L348 469z"/>
<path style="fill:#4f596b; stroke:none;" d="M349 469L346 474L350 474L346 481L346 482L351 482L352 484L350 487L352 488L355 486L354 489L358 487L358 486L355 486L356 481L352 483L354 480L350 478C351.694 474.394 351.298 472.252 349 469z"/>
<path style="fill:#fcfcfd; stroke:none;" d="M364 469L365 470L364 469z"/>
<path style="fill:#84899c; stroke:none;" d="M384 469L385 470L384 469z"/>
<path style="fill:#626a7c; stroke:none;" d="M400 469L401 470L400 469z"/>
<path style="fill:#84899c; stroke:none;" d="M347 470L348 471L347 470M350 470L352 472L350 470z"/>
<path style="fill:#bdbcc9; stroke:none;" d="M361 470L358 476L361 470z"/>
<path style="fill:#626a7c; stroke:none;" d="M366 470L362 471L362 477L362 474L366 470z"/>
<path style="fill:#bdbcc9; stroke:none;" d="M367 470L374 483L376 479L373 481L367 470z"/>
<path style="fill:#626a7c; stroke:none;" d="M384 470L381 483L378 479L377 479L376 483L379 482L376 485L377 488L365 489L364 485L363 488L356 482L355 482L358 486L358 487L347 492L347 493L350 494L361 488L359 494C364.355 492.112 371.247 496.459 375 491C380.191 491.753 383.223 487.898 384 483C388.353 484.212 395.015 484.957 398 481L399 481L400 481C403.6 484.725 405.746 479.292 406 476L405 476L404 478L403 475L399 480L395 479L395 476L393 477L393 475L389 477L384 470z"/>
<path style="fill:#84899c; stroke:none;" d="M396 470L395 473L396 470M400.333 470.667L400.667 471.333L400.333 470.667z"/>
<path style="fill:#fcfcfd; stroke:none;" d="M401 470L402 471L401 470z"/>
<path style="fill:#84899c; stroke:none;" d="M403 470L404 471L403 470z"/>
<path style="fill:#626a7c; stroke:none;" d="M350 471L351 472L350 471z"/>
<path style="fill:#84899c; stroke:none;" d="M367 471L369 473L367 471M383 471L383 474L384 474L383 471M385.333 471.667L385.667 472.333L385.333 471.667M402 471L403 472L402 471M314 472L315 477L315 478L311 479L312 483L314 484L315 484L316 482L317 486L318 486L319 480L315 476L314 472z"/>
<path style="fill:#626a7c; stroke:none;" d="M315 472L316 473L315 472z"/>
<path style="fill:#bdbcc9; stroke:none;" d="M327 472L327 473L327 474L329 475L330 475L327 472M340 472L336 479L337 479L339 474L340 474L341 479L345 474L342 477L340 472z"/>
<path style="fill:#84899c; stroke:none;" d="M346 472L347 473L346 472z"/>
<path style="fill:#626a7c; stroke:none;" d="M351 472L352 473L351 472z"/>
<path style="fill:#bdbcc9; stroke:none;" d="M352.333 472.667L352.667 473.333L352.333 472.667z"/>
<path style="fill:#84899c; stroke:none;" d="M362 472L363 473L362 472z"/>
<path style="fill:#4f596b; stroke:none;" d="M363 476L362 477L360 476C360.497 478.697 359.338 492.693 364 485L365 489L377 488L376 485L379 482L376 481L375 481L372 485L369 482L369 473C365.727 472.385 363.736 472.554 363 476z"/>
<path style="fill:#bdbcc9; stroke:none;" d="M386 472L391 476L389 472L386 472M391 472L395 475L395 474L395 473L391 472z"/>
<path style="fill:#626a7c; stroke:none;" d="M396 472L397 473L396 472M400 474L401 475L403 472L400 474z"/>
<path style="fill:#84899c; stroke:none;" d="M404 472L405 473L404 472z"/>
<path style="fill:#626a7c; stroke:none;" d="M328 473L329 474L328 473z"/>
<path style="fill:#84899c; stroke:none;" d="M345 473L346 474L345 473z"/>
<path style="fill:#626a7c; stroke:none;" d="M342 482L341 482L340 475L339 475L337 477L338 487L335 487L338 492C338.245 496.67 341.668 495.755 345 494L344 497L345 497L347 494L347 493L345 490L352 486L348 484L352 485L352 484L351 482L346 482L346 481C349.665 479.96 349.413 477.461 350 474C344.854 473.803 343.112 477.382 342 482z"/>
<path style="fill:#84899c; stroke:none;" d="M361 473L362 474L361 473z"/>
<path style="fill:#626a7c; stroke:none;" d="M367 473L368 474L367 473z"/>
<path style="fill:#bdbcc9; stroke:none;" d="M382 473L381 477L380 477L376 478L382 479L382 473z"/>
<path style="fill:#626a7c; stroke:none;" d="M395 473L396 474L395 473M404 473L404 476L405 476L404 473z"/>
<path style="fill:#84899c; stroke:none;" d="M317 474L318 475L317 474M327 474L328 475L327 474z"/>
<path style="fill:#4f596b; stroke:none;" d="M328 474L327 478L328 478L328 474z"/>
<path style="fill:#bdbcc9; stroke:none;" d="M331 474L331 475L332 481L336 479L333 480C334.095 476.851 333.9 475.739 331 474z"/>
<path style="fill:#84899c; stroke:none;" d="M339 474L340 475L339 474M352 474L352 476L354 476L352 474z"/>
<path style="fill:#bdbcc9; stroke:none;" d="M354 474L356 478L354 474z"/>
<path style="fill:#626a7c; stroke:none;" d="M368 474C368.648 477.426 368.235 481.193 372 482L368 474z"/>
<path style="fill:#84899c; stroke:none;" d="M388.333 474.667L388.667 475.333L388.333 474.667M391 474L391 476L393 474L391 474z"/>
<path style="fill:#bdbcc9; stroke:none;" d="M326 475L327 476L326 475z"/>
<path style="fill:#626a7c; stroke:none;" d="M327 475L328 476L327 475z"/>
<path style="fill:#84899c; stroke:none;" d="M329.667 475.333L330.333 475.667L329.667 475.333z"/>
<path style="fill:#626a7c; stroke:none;" d="M331 475C322.54 479.23 328.056 482.776 327 487C331.616 484.5 333.001 479.842 331 475z"/>
<path style="fill:#84899c; stroke:none;" d="M332 475L332 479L333 479L332 475z"/>
<path style="fill:#4f596b; stroke:none;" d="M344 475L345 476L344 475M347 475L348 476L347 475z"/>
<path style="fill:#84899c; stroke:none;" d="M359 475L358 478L359 475M382 475L382 479L376 480L381 483L381 480L382 475M393 475L393 477L395 475L393 475M326.333 476.667L326.667 477.333L326.333 476.667M338 476L339 477L338 476M340 476L340 479L341 479L340 476z"/>
<path style="fill:#bdbcc9; stroke:none;" d="M351.667 476.333L352.333 476.667L351.667 476.333z"/>
<path style="fill:#626a7c; stroke:none;" d="M353 476L354 482L355 482L353 476z"/>
<path style="fill:#84899c; stroke:none;" d="M389.667 476.333L390.333 476.667L389.667 476.333z"/>
<path style="fill:#626a7c; stroke:none;" d="M316 477L317 478L316 477z"/>
<path style="fill:#84899c; stroke:none;" d="M343 477L344 478L343 477z"/>
<path style="fill:#626a7c; stroke:none;" d="M350 477L351 478L350 477z"/>
<path style="fill:#84899c; stroke:none;" d="M351 477L352 478L351 477z"/>
<path style="fill:#4f596b; stroke:none;" d="M353 477L354 478L353 477z"/>
<path style="fill:#626a7c; stroke:none;" d="M359 477L359 479L361 479L359 477M364 477L365 478L364 477z"/>
<path style="fill:#84899c; stroke:none;" d="M325 478L326 479L325 478z"/>
<path style="fill:#4f596b; stroke:none;" d="M337 478L338 479L337 478z"/>
<path style="fill:#84899c; stroke:none;" d="M342 478L343 479L342 478M354 478L355 481L356 481L356 478L354 478z"/>
<path style="fill:#bdbcc9; stroke:none;" d="M357 478L357 485L358 485L357 480L360 481L357 478z"/>
<path style="fill:#4f596b; stroke:none;" d="M358 478L359 479L358 478z"/>
<path style="fill:#84899c; stroke:none;" d="M370 478L371 481L372 481L370 478z"/>
<path style="fill:#4f596b; stroke:none;" d="M388.333 478.667L388.667 479.333L388.333 478.667z"/>
<path style="fill:#bdbcc9; stroke:none;" d="M313.333 479.667L313.667 480.333L313.333 479.667z"/>
<path style="fill:#626a7c; stroke:none;" d="M315 479L316 480L315 479z"/>
<path style="fill:#fcfcfd; stroke:none;" d="M318.667 479.333L319.333 479.667L318.667 479.333z"/>
<path style="fill:#4f596b; stroke:none;" d="M325 479L326 480L325 479z"/>
<path style="fill:#84899c; stroke:none;" d="M331 479L332 480L331 479M338 479L339 480L338 479M341 479L340 480L340 481L341 482L342 482L343 481L343 480L341 479M360 479L361 480L360 479z"/>
<path style="fill:#4f596b; stroke:none;" d="M370 479L371 480L370 479z"/>
<path style="fill:#626a7c; stroke:none;" d="M407 479L408 480L407 479z"/>
<path style="fill:#bdbcc9; stroke:none;" d="M341 480L342 481L341 480z"/>
<path style="fill:#fcfcfd; stroke:none;" d="M357.667 480.333L358.333 480.667L357.667 480.333z"/>
<path style="fill:#626a7c; stroke:none;" d="M360 480L359 484L360 484L360 480z"/>
<path style="fill:#84899c; stroke:none;" d="M375 480L376 481L375 480z"/>
<path style="fill:#626a7c; stroke:none;" d="M316 481L317 482L316 481z"/>
<path style="fill:#4f596b; stroke:none;" d="M343 481L343 485L344 485L343 481z"/>
<path style="fill:#84899c; stroke:none;" d="M352 481L352 483L354 483L352 481z"/>
<path style="fill:#bdbcc9; stroke:none;" d="M353 481L354 482L353 481z"/>
<path style="fill:#84899c; stroke:none;" d="M358 481L359 482L358 481M372 481L375 483L375 482L372 481z"/>
<path style="fill:#bdbcc9; stroke:none;" d="M333.667 482.333L334.333 482.667L333.667 482.333z"/>
<path style="fill:#84899c; stroke:none;" d="M356 482L357 483L356 482M359 482L360 483L359 482M339 483L339 485L341 485L341 483L339 483z"/>
<path style="fill:#4f596b; stroke:none;" d="M347 483L348 487L347 483z"/>
<path style="fill:#fcfcfd; stroke:none;" d="M358 483L359 484L358 483z"/>
<path style="fill:#626a7c; stroke:none;" d="M370 483L371 484L370 483M372 483L372 485L374 485L372 483M374 483L375 484L374 483z"/>
<path style="fill:#84899c; stroke:none;" d="M348 484L348 486L350 486L350 484L348 484M358 484L359 485L358 484M288 485C285.508 490.921 282.822 494.902 286 501L280 501L280 505L285 507L285 503L290 506L288 501L291 500L288 485z"/>
<path style="fill:#626a7c; stroke:none;" d="M323 485L324 486L323 485M330 488L330 489L333 488L333 485L330 488M367 485L369 487L369 485L367 485z"/>
<path style="fill:#4f596b; stroke:none;" d="M377 485L377 487L379 487L379 485L377 485z"/>
<path style="fill:#626a7c; stroke:none;" d="M353 486L353 489L355 486L353 486z"/>
<path style="fill:#bdbcc9; stroke:none;" d="M306 487L307 488L306 487z"/>
<path style="fill:#fcfcfd; stroke:none;" d="M313 487L314 488L313 487M319 487L320 488L319 487z"/>
<path style="fill:#84899c; stroke:none;" d="M315 488L317 494L318 494L318 488L315 488z"/>
<path style="fill:#bdbcc9; stroke:none;" d="M350 488L351 489L350 488z"/>
<path style="fill:#84899c; stroke:none;" d="M338 490L339 491L338 490z"/>
<path style="fill:#bdbcc9; stroke:none;" d="M347.667 490.333L348.333 490.667L347.667 490.333M322 491L323 492L322 491z"/>
<path style="fill:#4f596b; stroke:none;" d="M348 492L349 493L348 492z"/>
<path style="fill:#84899c; stroke:none;" d="M319.333 493.667L319.667 494.333L319.333 493.667M340 493L339 495L341 495L340 493z"/>
<path style="fill:#bdbcc9; stroke:none;" d="M348 493L348 495L350 495L348 493z"/>
<path style="fill:#84899c; stroke:none;" d="M300 495L297 498L297 499L301 500L300 495z"/>
<path style="fill:#626a7c; stroke:none;" d="M347.667 495.333L348.333 495.667L347.667 495.333z"/>
<path style="fill:#84899c; stroke:none;" d="M292 497L293 498L292 497z"/>
<path style="fill:#bdbcc9; stroke:none;" d="M287 500L288 501L287 500z"/>
<path style="fill:#84899c; stroke:none;" d="M296 500L299 502L296 500z"/>
<path style="fill:#fcfcfd; stroke:none;" d="M401 503L405 500L401 503z"/>
<path style="fill:#bdbcc9; stroke:none;" d="M283.667 502.333L284.333 502.667L283.667 502.333z"/>
<path style="fill:#fcfcfd; stroke:none;" d="M294.667 502.333L295.333 502.667L294.667 502.333M423 504L424 505L423 504z"/>
<path style="fill:#bdbcc9; stroke:none;" d="M235 505L230 520L223 510C220.3 515.248 216.105 523.589 224 526C227.579 519.7 234.939 520.994 240 525L249 524L248 512L247 512L247 516L241 523L240 523C241.986 515.413 240.074 511.909 237 505L235 505M213 513L212 518L216 520L215 513L213 513M167 516L163 530L159 528L156 543L168 544L173 541C174.827 537.73 178.203 531.115 173 530L174 527L172 518L171 518L169 520L167 516M184 525L180 531L184 532L187 527L187 526L184 525M189 526L186 532L191 540L195 539L194 535L199 534L191 526L189 526M146 527L147 528L146 527M197 527L198 528L197 527M153 539L154 540L153 539z"/>
</svg>
